<svg aria-hidden="true" style="width:0;height:0;position:absolute;overflow:hidden" xmlns="http://www.w3.org/2000/svg"><defs><symbol id="icon-location" viewBox="0 0 32 32"><path style="fill:var(--color1,#000)" opacity=".12" d="M21.817 27.782c0 .564-2.608 1.021-5.826 1.021s-5.826-.457-5.826-1.021c0-.564 2.608-1.021 5.826-1.021s5.826.457 5.826 1.021z"/><path fill="currentColor" style="fill:currentColor" d="M16.008 10.609a6.685 6.685 0 0 0-6.679 6.677c0 2.277 1.081 4.723 3.212 7.267 1.566 1.869 3.11 3.071 3.175 3.122a.477.477 0 0 0 .585-.001l-.001.001a22.796 22.796 0 0 0 3.175-3.122c2.131-2.545 3.212-4.99 3.212-7.267 0-3.681-2.996-6.677-6.679-6.677zm2.473 6.677a2.473 2.473 0 1 1-4.945 0 2.473 2.473 0 0 1 4.945 0z"/><path style="fill:var(--color1,#000)" opacity=".1" d="M16.008 10.609a6.82 6.82 0 0 0-.862.055c3.278.424 5.818 3.232 5.818 6.621 0 2.277-1.081 4.722-3.212 7.267a24.249 24.249 0 0 1-2.577 2.625l-.028.024c.165.145.35.299.539.449l.03.023a.477.477 0 0 0 .585-.001l-.001.001a22.821 22.821 0 0 0 3.175-3.121c2.131-2.545 3.212-4.99 3.212-7.267a6.685 6.685 0 0 0-6.679-6.677z"/></symbol><symbol id="icon-icecream" viewBox="0 0 38 32"><path d="M38.4 0v32H0V0h38.4z"/></symbol><symbol id="icon-buzzfeed" viewBox="0 0 32 32"><path d="m2.667 13.642 2.252.007a1.152 1.152 0 0 1 1.128.938l.001.007c.111.608-.205 1.126-.693 1.266a.156.156 0 0 0-.039.026c.464.133.74.44.818.899.128.758-.29 1.381-1.08 1.47a5.206 5.206 0 0 1-.53.021l-1.859.004.002-4.638zm.995 3.749c.011.006.024.01.038.013h.001l.933-.003c.32-.016.511-.212.521-.503s-.168-.503-.48-.541a5.703 5.703 0 0 0-.61-.016h.008-.407l-.003 1.05zm-.007-1.913h.841a.85.85 0 0 0 .159-.01c.192-.039.341-.139.392-.341a.48.48 0 0 0-.458-.619c-.156-.008-.312 0-.467 0h-.459c0 .034-.006.054-.006.075l.003.896h-.003zm16.912 2.883-.351-.064c-.908-.218-1.37-.999-1.291-1.862.064-.72.431-1.254 1.124-1.494.969-.341 2.093.12 2.259 1.406.022.17.02.343.031.533h-2.504c.058.32.218.541.497.659.454.192.879.097 1.278-.162.027-.015.045-.033.069-.05l.011-.001.012.001.391.576-.378.233a2.04 2.04 0 0 1-.757.206h-.007a.538.538 0 0 0-.09.022l-.295-.004zm.908-2.094c.017-.416-.379-.734-.882-.714-.417.016-.789.37-.747.714h1.628zm2.685 2.094-.433-.089a1.644 1.644 0 0 1-1.207-1.452v-.006c-.058-.659.133-1.219.663-1.634.8-.631 2.379-.488 2.692 1.004.022.107.036.216.042.325.008.116 0 .233 0 .366h-2.48c.018.18.096.34.214.461.275.284.618.338.987.272a1.32 1.32 0 0 0 .652-.301l-.002.002.4.586c-.107.069-.199.144-.302.2a2.077 2.077 0 0 1-.823.242h-.008a1.133 1.133 0 0 0-.101.022l-.294.001zm-.718-2.095h1.627c.021-.403-.366-.724-.853-.715-.431.009-.805.35-.774.715zM7.708 18.361l-.32-.064c-.655-.158-1.039-.648-1.039-1.32v-2.049h.882v1.951c0 .276.083.511.345.631.284.128.576.128.837-.064.192-.137.246-.347.247-.571v-1.951h.874v2.033c0 .767-.48 1.299-1.247 1.379-.037.004-.075.016-.113.027h-.467zm8.34-.096v-4.621h3.212v.745c.006.099-.031.117-.121.116-.634-.003-1.268 0-1.902 0h-.2v.972h1.554c.097 0 .12.027.117.121v.743h-1.676v1.924h-.984zm10.097-.002v-3.222c0-.135 0-.137.141-.135l1.453.021c.688.053 1.225.363 1.481 1.041.259.69.064 1.477-.465 1.908-.289.237-.66.384-1.065.393h-.002l-1.498.006a.306.306 0 0 1-.048-.012l.002.001h.001zm.842-.709h.486c.571 0 .93-.32.994-.89.046-.407-.174-.813-.526-.959-.309-.128-.632-.06-.955-.08v1.929zM11.313 15.68h-1.5v-.756h2.707v.427l.001.033a.455.455 0 0 1-.116.304l-1.339 1.69-.084.111h1.55v.773H9.807v-.633c0-.036.037-.074.064-.106.456-.582.914-1.164 1.372-1.745.022-.027.037-.051.069-.1v.003zm1.467.003v-.677c0-.027.004-.049.007-.08h2.699v.605a.188.188 0 0 1-.053.089l-1.397 1.768-.079.11h1.453c.081 0 .112.02.107.107v.663h-2.731v-.647c0-.027.029-.055.048-.08l1.339-1.703.117-.151-1.51-.002z"/></symbol><symbol id="icon-people" viewBox="0 0 32 32"><path d="M25.471 13.069c-.873 0-1.912.594-2.112 2.454v-4.196h-2.22v1.033c.377 0 .605.188.605.565v2.592c-.24-1.947-1.187-2.46-1.644-2.454-.479 0-.947.291-1.09.828v-.708h-1.912v1.101c-.303-.891-1.233-1.221-1.781-1.221-.303 0-1.604.137-1.981 1.895-.354-2.312-2.46-2.141-3.345-1.37-.045-.582-.165-1.37-.742-1.827-.314-.245-.782-.445-1.438-.445H4.322v1.244c.605.005.628.582.628.674v3.739c0 .422-.16.696-.634.702v1.239h3.231v-1.261c-.468-.005-.622-.257-.622-.679v-1.05h.548c.656-.023 1.204.057 1.798-.582-.017.177-.063.536-.063.719-.023.919.085 1.769.639 2.329.011.011.565.645 1.484.656.514.005 1.678-.091 1.987-1.844.069.234.445 1.844 2.106 1.844 1.673 0 2.021-1.524 2.106-1.992v1.872c-.005.497-.371.725-.599.731v1.028h2.72v-1.033c-.302-.04-.588-.32-.588-.765l-.023-.719c.24.657.879.873 1.141.873.314 0 1.028-.171 1.233-1.421v1.279h2.323v-1.262c.297 1.941 3.676 1.918 3.881-.525h-1.604c-.063.348-.217.628-.508.628-.359 0-.514-.417-.537-.873a4.305 4.305 0 0 1-.011-.451h2.706c.029-.553.057-1.41-.354-2.22-.325-.628-.953-1.125-1.844-1.125h.003zM7.377 14.502H6.92V12.75h.451c.354 0 .554.297.554.867.005.628-.137.873-.548.885zm3.447.736c.023-.462.183-.902.548-.902.36 0 .502.44.525.902.005.154.011.165 0 .28h-1.073a1.077 1.077 0 0 1 0-.28zm1.062 1.872c-.057.348-.217.628-.508.622-.359 0-.514-.417-.537-.873a4.305 4.305 0 0 1-.011-.451h2.374c.005.274.017.348.085.696h-1.404v.006zm3.533.639c-.422-.005-.588-.753-.588-1.69 0-.931.177-1.695.588-1.69.422.005.588.753.588 1.69s-.16 1.695-.588 1.69zm4.132-.011c-.331 0-.445-.354-.445-.828v-1.73c-.017-.588.154-.868.485-.856.342.017.542.456.542 1.741.005 1.17-.217 1.672-.582 1.672zm6.479-2.22h-1.073c-.011-.114-.005-.126 0-.28.023-.462.177-.867.537-.867s.514.405.536.867c.012.16.012.165 0 .28z"/></symbol><symbol id="icon-cosmopolitan" viewBox="0 0 32 32"><path d="M14.552 17.161c-.055.2-.109.492-.364.546-.128.018-.255 0-.346-.109-.182-.273-.2-.619-.218-.965-.037-.729-.073-1.493.146-2.149.055-.109.164-.218.291-.218.146-.018.291.055.346.182.146.273.146.601.182.911.073.601.055 1.22-.036 1.803zm.456-3.151a1.12 1.12 0 0 0-1.202-.382c-.437.091-.747.546-.856.947-.218.765-.2 1.675-.091 2.477.091.492.273 1.056.801 1.275.401.146.91.091 1.22-.2.492-.51.546-1.238.583-1.93.018-.728-.018-1.42-.346-2.021l-.109-.164zm-9.415 3.442c-.055.127-.164.273-.31.291a.333.333 0 0 1-.291-.091c-.164-.146-.164-.346-.219-.546a8.754 8.754 0 0 1 .043-2.343l-.006.049c.055-.2.109-.473.364-.528.164-.037.31.073.401.218.182.437.182.965.182 1.475-.018.51-.018 1.02-.164 1.475zm-.383-3.861c-.437.018-.838.31-1.02.692-.218.51-.291 1.075-.291 1.657.018.747.018 1.493.455 2.058.237.328.601.437 1.002.382.382-.018.747-.31.911-.656.255-.546.31-1.184.31-1.839-.018-.637-.055-1.275-.346-1.785a1.182 1.182 0 0 0-1.02-.51zm3.46 2.514c-.364-.382-.965-.583-1.093-1.111-.018-.255-.055-.583.218-.729.073-.036.164-.018.237 0 .127.073.182.2.2.346.036.164.018.383.036.565h.747c.018-.382 0-.747-.164-1.074a.93.93 0 0 0-.449-.416l-.006-.002c-.346-.164-.856-.127-1.165.127-.419.346-.528.911-.419 1.42.146.583.783.911 1.202 1.311.237.2.31.474.273.765-.018.182-.109.382-.31.437-.109.018-.219 0-.291-.073-.237-.255-.182-.656-.182-1.002h-.783c-.036.473 0 .965.291 1.329.291.328.728.419 1.165.346.401-.073.765-.419.856-.801.127-.492.036-1.074-.364-1.439zm11.345 1.165c-.055.164-.109.383-.31.455-.164.055-.309-.018-.401-.128-.127-.164-.127-.364-.164-.546-.109-.71-.073-1.475 0-2.185.037-.2.109-.419.292-.528a.368.368 0 0 1 .401.073c.2.255.2.583.255.911.036.619.036 1.311-.073 1.948zm-.601-3.66c-.401.018-.765.346-.911.692-.273.656-.291 1.421-.255 2.185.055.71.146 1.548.911 1.858.401.127.892.073 1.202-.237.437-.473.51-1.111.565-1.748.018-.728-.018-1.457-.291-2.076-.2-.455-.692-.765-1.22-.674z"/><path d="M3.717 16.432h-.783c-.018.401 0 .838-.182 1.165-.055.109-.182.146-.31.128-.146-.036-.218-.2-.273-.328-.182-.728-.182-1.621-.109-2.404.036-.237.055-.492.237-.674a.29.29 0 0 1 .275-.035l-.002-.001c.164.073.218.255.255.419.037.237.037.492.073.728h.783c0-.473-.055-.947-.291-1.329-.237-.419-.728-.583-1.184-.473-.546.109-.801.692-.892 1.165 0 .055-.036.109-.018.164 0 0-.018 0-.018.018-.073.419-.073.856-.055 1.275.055.656.073 1.311.455 1.821.291.364.765.437 1.202.31.692-.255.819-.983.856-1.639-.018-.109.018-.219-.018-.31zm7.211-.054-.018.036-.565-2.695H9.252v4.589h.71v-3.169l.401 1.967.237 1.202h.565l.637-3.023v3.023h.747v-4.607h-1.056l-.565 2.677zm6.265-.51c-.164.2-.437.2-.692.2v-1.675c.018-.018 0-.036.018-.036.291-.018.601.018.728.31.182.328.2.874-.055 1.202zm-.128-2.167h-1.384v4.589h.801v-1.602h.455c.328-.018.619-.109.856-.364.455-.474.492-1.257.273-1.858-.164-.382-.565-.747-1.002-.765zm5.773 4.607v-.619h-.82v-3.988h-.783v4.607h1.603zm.182-4.607h.783v4.607h-.783v-4.607zm.929 0v.656h.692v3.952h.765v-3.952h.674v-.655h-2.131zm2.859 2.677.237-1.657v-.018l.255 1.694h-.492v-.018zm-.31-2.677-.765 4.607h.765l.219-1.293h.692l.219 1.275h.728l-.783-4.607h-1.075v.018zm3.643 0v2.804l-.747-2.804h-.874v4.607h.656v-2.914c.037.091.765 2.914.765 2.914h.838v-4.607h-.637z"/></symbol><symbol id="icon-food" viewBox="0 0 32 32"><path style="fill:var(--color1,#000)" d="M31.234 15.921c0 8.594-6.965 15.56-15.56 15.56-8.593 0-15.557-6.965-15.557-15.56S7.081.36 15.674.36c8.594 0 15.56 6.966 15.56 15.561zm-.757-6.714.062-.018c.026.106.095.156.203.156h.008a.145.145 0 0 0 .097-.038.15.15 0 0 0 .039-.101v-.004c0-.054-.035-.094-.101-.124-.062-.026-.124-.049-.187-.075-.066-.037-.098-.086-.098-.153 0-.058.015-.102.051-.135a.214.214 0 0 1 .141-.053h.01a.234.234 0 0 1 .23.172v.002l-.057.018c-.028-.091-.086-.137-.173-.137h-.005a.152.152 0 0 0-.096.034c-.028.025-.037.057-.037.1 0 .026.006.05.024.066.018.02.057.042.12.065.098.038.163.07.196.103.028.03.046.07.046.115v.011-.001.006a.18.18 0 0 1-.063.136.246.246 0 0 1-.147.048h-.007a.256.256 0 0 1-.166-.048.287.287 0 0 1-.09-.145zm.683.182h-.066v-.715h.114l.198.606h.003l.197-.606h.116v.715h-.066v-.662l-.217.662h-.063l-.217-.662v.662z"/><path fill="#fff" style="fill:var(--color3,#fff)" d="M5.496 20.606c.268-1.279.546-4.116.901-7.522l1.208-.003.084-.533-1.226.003c.111-1.054.316-3.328 1.301-3.738.266.462.522.819 1.088.83.366.008.69-.155.696-.555.013-.565-.856-.795-1.3-.803-.826-.014-3.171.294-3.749 3.452l-.15.813-.952.004-.086.537.96.003c-.278 2.473-.825 7.476-.974 8.162-.33 1.505-.445 1.866-1.198 2.275.091.161.184.319.28.477 1.285-.392 2.73-1.566 3.116-3.402zm6.714-5.45c0-.632-.044-2.13-.969-2.13-1.367 0-1.558 2.629-1.558 3.584 0 .616.045 2.114.969 2.114 1.366 0 1.558-2.629 1.558-3.568zm-4.656 1.836c0-2.424 1.585-4.524 4.215-4.524 1.617 0 2.57.72 2.57 2.291 0 2.424-1.585 4.528-4.216 4.528-1.616 0-2.57-.721-2.57-2.294zm12-1.836c0-.632-.044-2.13-.968-2.13-1.366 0-1.559 2.629-1.559 3.584 0 .616.045 2.114.969 2.114 1.368 0 1.558-2.629 1.558-3.568zm-4.656 1.836c0-2.424 1.585-4.524 4.216-4.524 1.619 0 2.571.72 2.571 2.291 0 2.424-1.584 4.528-4.215 4.528-1.616 0-2.572-.721-2.572-2.294zm11.414-.705c.35-.909.471-1.747.662-3.114a.655.655 0 0 0-.235-.043c-1.618 0-2.382 2.349-2.382 3.658 0 .322.074 1.101.543 1.101.647 0 1.219-1.101 1.412-1.602zm3.363 2.188c-.925.444-2.054.809-2.833.809-.397 0-.382-.63-.382-.896 0-.308.03-.734.102-1.556l-.03-.03c-.528 1.059-1.557 2.483-2.88 2.483-1.055 0-1.497-1.102-1.497-2.013 0-2.306 1.822-4.702 4.364-4.702h.528c.208-1.6.22-2.276.22-2.76 0-.162 0-.308-.176-.308-.134 0-.336.042-.853.205l-.13-.426c1.041-.367 2.176-.601 3.186-.63.132 0 .177 0 .177.22 0 1.352-1.016 8.328-1.016 9.032 0 .193 0 .442.193.442.102 0 .442-.117.896-.278l.132.409zM9.757 22.902V21.02h.413v.203c.165-.117.356-.238.578-.238.374 0 .556.247.556.629v1.288h-.449V21.68c0-.256-.08-.334-.231-.334a.567.567 0 0 0-.419.199v1.357h-.449zm3.469-1.174c-.007-.26-.146-.41-.363-.41-.215 0-.353.15-.362.411h.725zm-.724.306c.009.39.182.543.393.543.208 0 .306-.096.418-.225l.326.202c-.172.268-.426.382-.788.382-.488 0-.794-.378-.794-.974 0-.597.305-.976.817-.976.491-.006.765.412.765.864v.185h-1.137zm2.011-1.014v-.618h.448v.618h.37v.363h-.37v1.065c0 .099.053.129.163.129.068 0 .14-.022.206-.039v.373c-.124.012-.233.026-.356.026-.332 0-.462-.164-.462-.435v-1.12h-.259v-.362h.259zm1.371 0h.426l.256 1.172h.006l.272-1.172h.414l.263 1.172h.006l.271-1.172h.424l-.484 1.882h-.408l-.276-1.174h-.009l-.274 1.174h-.405l-.484-1.882zm3.711.326c-.25 0-.367.196-.367.614s.117.617.367.617.369-.198.369-.617-.119-.614-.369-.614zm0-.361c.512 0 .818.381.818.975 0 .599-.307.975-.818.975-.51 0-.816-.376-.816-.975 0-.594.306-.975.816-.975zm1.541 1.917V21.02h.41v.323h.008c.108-.226.258-.352.53-.358v.472l-.081-.001c-.223 0-.419.257-.419.302v1.144h-.448zm1.666 0v-2.611h.448v1.455h.014l.555-.727h.513l-.555.703.594 1.18h-.478l-.416-.843-.227.262v.581h-.448z"/></symbol></defs></svg>