<svg aria-hidden="true" style="position: absolute; width: 0; height: 0; overflow: hidden;" version="1.1" xmlns="http://www.w3.org/2000/svg" xmlns:xlink="http://www.w3.org/1999/xlink">
<defs>
<symbol id="icon-location" viewBox="0 0 32 32">
<path fill="#000" style="fill: var(--color1, #000)" opacity="0.12" d="M21.817 27.782c0 0.564-2.608 1.021-5.826 1.021s-5.826-0.457-5.826-1.021c0-0.564 2.608-1.021 5.826-1.021s5.826 0.457 5.826 1.021z"></path>
<path fill="currentColor" style="fill: currentColor" d="M16.008 10.609c-3.683 0-6.679 2.995-6.679 6.677 0 2.277 1.081 4.723 3.212 7.267 1.566 1.869 3.11 3.071 3.175 3.122 0.080 0.062 0.182 0.1 0.292 0.1s0.212-0.038 0.293-0.101l-0.001 0.001c0.065-0.050 1.609-1.252 3.175-3.122 2.131-2.545 3.212-4.99 3.212-7.267-0-3.681-2.996-6.677-6.679-6.677zM18.481 17.286c0 1.366-1.107 2.473-2.473 2.473s-2.474-1.107-2.474-2.473c0-1.366 1.108-2.473 2.474-2.473s2.473 1.107 2.473 2.473z"></path>
<path fill="#000" style="fill: var(--color1, #000)" opacity="0.1" d="M16.008 10.609c-0.292 0-0.579 0.019-0.862 0.055 3.278 0.424 5.818 3.232 5.818 6.621 0 2.277-1.081 4.722-3.212 7.267-0.812 0.961-1.664 1.827-2.577 2.625l-0.028 0.024c0.165 0.145 0.35 0.299 0.539 0.449l0.030 0.023c0.080 0.062 0.182 0.1 0.292 0.1s0.212-0.038 0.293-0.101l-0.001 0.001c0.065-0.050 1.609-1.252 3.175-3.121 2.131-2.545 3.212-4.99 3.212-7.267-0-3.682-2.996-6.677-6.679-6.677z"></path>
</symbol>
<symbol id="icon-icecream" viewBox="0 0 38 32">
<path d="M38.4 0v32h-38.4v-32h38.4z"></path>
</symbol>
<symbol id="icon-buzzfeed" viewBox="0 0 32 32">
<path d="M2.667 13.642l2.252 0.007c0.561 0.002 1.028 0.405 1.128 0.938l0.001 0.007c0.111 0.608-0.205 1.126-0.693 1.266-0.015 0.007-0.028 0.016-0.039 0.026l0-0c0.464 0.133 0.74 0.44 0.818 0.899 0.128 0.758-0.29 1.381-1.080 1.47-0.176 0.016-0.353 0.023-0.53 0.021l-1.859 0.004 0.002-4.638zM3.662 17.391c0.011 0.006 0.024 0.010 0.038 0.013l0.001 0 0.933-0.003c0.32-0.016 0.511-0.212 0.521-0.503s-0.168-0.503-0.48-0.541c-0.135-0.011-0.293-0.018-0.452-0.018-0.053 0-0.106 0.001-0.158 0.002l0.008-0h-0.407l-0.003 1.050zM3.655 15.478h0.841c0.053 0.002 0.106-0.002 0.159-0.010 0.192-0.039 0.341-0.139 0.392-0.341 0.013-0.042 0.021-0.089 0.021-0.139 0-0.265-0.215-0.48-0.479-0.48h-0c-0.156-0.008-0.312 0-0.467 0h-0.459c0 0.034-0.006 0.054-0.006 0.075l0.003 0.896-0.003-0zM20.567 18.361l-0.351-0.064c-0.908-0.218-1.37-0.999-1.291-1.862 0.064-0.72 0.431-1.254 1.124-1.494 0.969-0.341 2.093 0.12 2.259 1.406 0.022 0.17 0.020 0.343 0.031 0.533h-2.504c0.058 0.32 0.218 0.541 0.497 0.659 0.454 0.192 0.879 0.097 1.278-0.162 0.027-0.015 0.045-0.033 0.069-0.050 0.003-0 0.007-0.001 0.011-0.001s0.008 0 0.012 0.001l-0-0 0.391 0.576-0.378 0.233c-0.223 0.112-0.482 0.185-0.757 0.206l-0.007 0c-0.031 0.005-0.061 0.012-0.090 0.022l-0.295-0.004zM21.475 16.267c0.017-0.416-0.379-0.734-0.882-0.714-0.417 0.016-0.789 0.37-0.747 0.714h1.628zM24.16 18.361l-0.433-0.089c-0.663-0.183-1.152-0.757-1.207-1.452l-0-0.006c-0.058-0.659 0.133-1.219 0.663-1.634 0.8-0.631 2.379-0.488 2.692 1.004 0.022 0.107 0.036 0.216 0.042 0.325 0.008 0.116 0 0.233 0 0.366h-2.48c0.018 0.18 0.096 0.34 0.214 0.461l-0-0c0.275 0.284 0.618 0.338 0.987 0.272 0.251-0.041 0.473-0.147 0.652-0.301l-0.002 0.002 0.4 0.586c-0.107 0.069-0.199 0.144-0.302 0.2-0.241 0.131-0.523 0.218-0.823 0.242l-0.008 0c-0.034 0.006-0.068 0.013-0.101 0.022l-0.294 0.001zM23.442 16.266h1.627c0.021-0.403-0.366-0.724-0.853-0.715-0.431 0.009-0.805 0.35-0.774 0.715h0zM7.708 18.361l-0.32-0.064c-0.655-0.158-1.039-0.648-1.039-1.32v-2.049h0.882v1.951c0 0.276 0.083 0.511 0.345 0.631 0.284 0.128 0.576 0.128 0.837-0.064 0.192-0.137 0.246-0.347 0.247-0.571v-1.951h0.874v2.033c0 0.767-0.48 1.299-1.247 1.379-0.037 0.004-0.075 0.016-0.113 0.027l-0.467-0zM16.048 18.265v-4.621h3.212v0.745c0.006 0.099-0.031 0.117-0.121 0.116-0.634-0.003-1.268 0-1.902 0h-0.2v0.972h1.554c0.097 0 0.12 0.027 0.117 0.121v0.743h-1.676v1.924l-0.984-0zM26.145 18.263v-3.222c0-0.135 0-0.137 0.141-0.135l1.453 0.021c0.688 0.053 1.225 0.363 1.481 1.041 0.259 0.69 0.064 1.477-0.465 1.908-0.289 0.237-0.66 0.384-1.065 0.393l-0.002 0-1.498 0.006c-0.018-0.003-0.033-0.007-0.048-0.012l0.002 0.001 0.001-0zM26.987 17.554h0.486c0.571 0 0.93-0.32 0.994-0.89 0.046-0.407-0.174-0.813-0.526-0.959-0.309-0.128-0.632-0.060-0.955-0.080l0 1.929zM11.313 15.68h-1.5v-0.756h2.707v0.427c0.001 0.010 0.001 0.021 0.001 0.033 0 0.117-0.044 0.223-0.116 0.304l0-0-1.339 1.69-0.084 0.111h1.55v0.773h-2.725v-0.633c0-0.036 0.037-0.074 0.064-0.106 0.456-0.582 0.914-1.164 1.372-1.745 0.022-0.027 0.037-0.051 0.069-0.1l0 0.003zM12.78 15.683v-0.677c0-0.027 0.004-0.049 0.007-0.080h2.699v0.605c-0.009 0.035-0.028 0.065-0.053 0.089l-0 0c-0.466 0.59-0.931 1.179-1.397 1.768l-0.079 0.11h1.453c0.081 0 0.112 0.020 0.107 0.107v0.663h-2.731v-0.647c0-0.027 0.029-0.055 0.048-0.080l1.339-1.703 0.117-0.151-1.51-0.002z"></path>
</symbol>
<symbol id="icon-people" viewBox="0 0 32 32">
<path d="M25.471 13.069c-0.873 0-1.912 0.594-2.112 2.454v-4.196h-2.22v1.033c0.377 0 0.605 0.188 0.605 0.565v2.592c-0.24-1.947-1.187-2.46-1.644-2.454-0.479 0-0.947 0.291-1.090 0.828v-0.708h-1.912v1.101c-0.303-0.891-1.233-1.221-1.781-1.221-0.303 0-1.604 0.137-1.981 1.895-0.354-2.312-2.46-2.141-3.345-1.37-0.045-0.582-0.165-1.37-0.742-1.827-0.314-0.245-0.782-0.445-1.438-0.445h-3.489v1.244c0.605 0.005 0.628 0.582 0.628 0.674v3.739c0 0.422-0.16 0.696-0.634 0.702v1.239h3.231v-1.261c-0.468-0.005-0.622-0.257-0.622-0.679v-1.050h0.548c0.656-0.023 1.204 0.057 1.798-0.582-0.017 0.177-0.063 0.536-0.063 0.719-0.023 0.919 0.085 1.769 0.639 2.329 0.011 0.011 0.565 0.645 1.484 0.656 0.514 0.005 1.678-0.091 1.987-1.844 0.069 0.234 0.445 1.844 2.106 1.844 1.673 0 2.021-1.524 2.106-1.992v1.872c-0.005 0.497-0.371 0.725-0.599 0.731v1.028h2.72v-1.033c-0.302-0.040-0.588-0.32-0.588-0.765l-0.023-0.719c0.24 0.657 0.879 0.873 1.141 0.873 0.314 0 1.028-0.171 1.233-1.421v1.279h2.323v-1.262c0.297 1.941 3.676 1.918 3.881-0.525h-1.604c-0.063 0.348-0.217 0.628-0.508 0.628-0.359 0-0.514-0.417-0.537-0.873-0.011-0.165-0.017-0.342-0.011-0.451h2.706c0.029-0.553 0.057-1.41-0.354-2.22-0.325-0.628-0.953-1.125-1.844-1.125l0.003-0zM7.377 14.502h-0.457v-1.752h0.451c0.354 0 0.554 0.297 0.554 0.867 0.005 0.628-0.137 0.873-0.548 0.885l0-0zM10.824 15.238c0.023-0.462 0.183-0.902 0.548-0.902 0.36 0 0.502 0.44 0.525 0.902 0.005 0.154 0.011 0.165 0 0.28h-1.073c-0.012-0.114-0.012-0.12 0-0.28h-0zM11.886 17.11c-0.057 0.348-0.217 0.628-0.508 0.622-0.359 0-0.514-0.417-0.537-0.873-0.011-0.165-0.017-0.342-0.011-0.451h2.374c0.005 0.274 0.017 0.348 0.085 0.696h-1.404l0 0.006zM15.419 17.749c-0.422-0.005-0.588-0.753-0.588-1.69 0-0.931 0.177-1.695 0.588-1.69 0.422 0.005 0.588 0.753 0.588 1.69s-0.16 1.695-0.588 1.69zM19.551 17.738c-0.331 0-0.445-0.354-0.445-0.828v-1.73c-0.017-0.588 0.154-0.868 0.485-0.856 0.342 0.017 0.542 0.456 0.542 1.741 0.005 1.17-0.217 1.672-0.582 1.672zM26.030 15.518h-1.073c-0.011-0.114-0.005-0.126 0-0.28 0.023-0.462 0.177-0.867 0.537-0.867s0.514 0.405 0.536 0.867c0.012 0.16 0.012 0.165 0 0.28z"></path>
</symbol>
<symbol id="icon-cosmopolitan" viewBox="0 0 32 32">
<path d="M14.552 17.161c-0.055 0.2-0.109 0.492-0.364 0.546-0.128 0.018-0.255 0-0.346-0.109-0.182-0.273-0.2-0.619-0.218-0.965-0.037-0.729-0.073-1.493 0.146-2.149 0.055-0.109 0.164-0.218 0.291-0.218 0.146-0.018 0.291 0.055 0.346 0.182 0.146 0.273 0.146 0.601 0.182 0.911 0.073 0.601 0.055 1.22-0.036 1.803zM15.008 14.010c-0.291-0.364-0.747-0.51-1.202-0.382-0.437 0.091-0.747 0.546-0.856 0.947-0.218 0.765-0.2 1.675-0.091 2.477 0.091 0.492 0.273 1.056 0.801 1.275 0.401 0.146 0.91 0.091 1.22-0.2 0.492-0.51 0.546-1.238 0.583-1.93 0.018-0.728-0.018-1.42-0.346-2.021l-0.109-0.164zM5.593 17.452c-0.055 0.127-0.164 0.273-0.31 0.291-0.017 0.003-0.037 0.005-0.056 0.005-0.091 0-0.174-0.037-0.235-0.096l0 0c-0.164-0.146-0.164-0.346-0.219-0.546-0.037-0.303-0.058-0.654-0.058-1.009 0-0.454 0.034-0.899 0.101-1.334l-0.006 0.049c0.055-0.2 0.109-0.473 0.364-0.528 0.164-0.037 0.31 0.073 0.401 0.218 0.182 0.437 0.182 0.965 0.182 1.475-0.018 0.51-0.018 1.020-0.164 1.475zM5.21 13.591c-0.437 0.018-0.838 0.31-1.020 0.692-0.218 0.51-0.291 1.075-0.291 1.657 0.018 0.747 0.018 1.493 0.455 2.058 0.237 0.328 0.601 0.437 1.002 0.382 0.382-0.018 0.747-0.31 0.911-0.656 0.255-0.546 0.31-1.184 0.31-1.839-0.018-0.637-0.055-1.275-0.346-1.785-0.237-0.328-0.601-0.528-1.020-0.51zM8.67 16.105c-0.364-0.382-0.965-0.583-1.093-1.111-0.018-0.255-0.055-0.583 0.218-0.729 0.073-0.036 0.164-0.018 0.237 0 0.127 0.073 0.182 0.2 0.2 0.346 0.036 0.164 0.018 0.383 0.036 0.565h0.747c0.018-0.382 0-0.747-0.164-1.074-0.101-0.188-0.258-0.333-0.449-0.416l-0.006-0.002c-0.346-0.164-0.856-0.127-1.165 0.127-0.419 0.346-0.528 0.911-0.419 1.42 0.146 0.583 0.783 0.911 1.202 1.311 0.237 0.2 0.31 0.474 0.273 0.765-0.018 0.182-0.109 0.382-0.31 0.437-0.109 0.018-0.219 0-0.291-0.073-0.237-0.255-0.182-0.656-0.182-1.002h-0.783c-0.036 0.473 0 0.965 0.291 1.329 0.291 0.328 0.728 0.419 1.165 0.346 0.401-0.073 0.765-0.419 0.856-0.801 0.127-0.492 0.036-1.074-0.364-1.439zM20.015 17.27c-0.055 0.164-0.109 0.383-0.31 0.455-0.164 0.055-0.309-0.018-0.401-0.128-0.127-0.164-0.127-0.364-0.164-0.546-0.109-0.71-0.073-1.475 0-2.185 0.037-0.2 0.109-0.419 0.292-0.528 0.127-0.055 0.291-0.036 0.401 0.073 0.2 0.255 0.2 0.583 0.255 0.911 0.036 0.619 0.036 1.311-0.073 1.948zM19.414 13.61c-0.401 0.018-0.765 0.346-0.911 0.692-0.273 0.656-0.291 1.421-0.255 2.185 0.055 0.71 0.146 1.548 0.911 1.858 0.401 0.127 0.892 0.073 1.202-0.237 0.437-0.473 0.51-1.111 0.565-1.748 0.018-0.728-0.018-1.457-0.291-2.076-0.2-0.455-0.692-0.765-1.22-0.674z"></path>
<path d="M3.717 16.432h-0.783c-0.018 0.401 0 0.838-0.182 1.165-0.055 0.109-0.182 0.146-0.31 0.128-0.146-0.036-0.218-0.2-0.273-0.328-0.182-0.728-0.182-1.621-0.109-2.404 0.036-0.237 0.055-0.492 0.237-0.674 0.047-0.034 0.106-0.055 0.17-0.055 0.037 0 0.072 0.007 0.105 0.020l-0.002-0.001c0.164 0.073 0.218 0.255 0.255 0.419 0.037 0.237 0.037 0.492 0.073 0.728h0.783c0-0.473-0.055-0.947-0.291-1.329-0.237-0.419-0.728-0.583-1.184-0.473-0.546 0.109-0.801 0.692-0.892 1.165 0 0.055-0.036 0.109-0.018 0.164 0 0-0.018 0-0.018 0.018-0.073 0.419-0.073 0.856-0.055 1.275 0.055 0.656 0.073 1.311 0.455 1.821 0.291 0.364 0.765 0.437 1.202 0.31 0.692-0.255 0.819-0.983 0.856-1.639-0.018-0.109 0.018-0.219-0.018-0.31zM10.928 16.378l-0.018 0.036-0.565-2.695h-1.093v4.589h0.71v-3.169l0.401 1.967 0.237 1.202h0.565l0.637-3.023v3.023h0.747v-4.607h-1.056l-0.565 2.677zM17.193 15.868c-0.164 0.2-0.437 0.2-0.692 0.2v-1.675c0.018-0.018 0-0.036 0.018-0.036 0.291-0.018 0.601 0.018 0.728 0.31 0.182 0.328 0.2 0.874-0.055 1.202zM17.065 13.701h-1.384v4.589h0.801v-1.602h0.455c0.328-0.018 0.619-0.109 0.856-0.364 0.455-0.474 0.492-1.257 0.273-1.858-0.164-0.382-0.565-0.747-1.002-0.765zM22.838 18.308v-0.619h-0.82v-3.988h-0.783v4.607h1.603zM23.020 13.701h0.783v4.607h-0.783v-4.607zM23.949 13.701v0.656h0.692v3.952h0.765v-3.952h0.674v-0.655h-2.131zM26.808 16.378l0.237-1.657v-0.018l0.255 1.694h-0.492v-0.018zM26.498 13.701l-0.765 4.607h0.765l0.219-1.293h0.692l0.219 1.275h0.728l-0.783-4.607h-1.075v0.018zM30.141 13.701v2.804l-0.747-2.804h-0.874v4.607h0.656v-2.914c0.037 0.091 0.765 2.914 0.765 2.914h0.838v-4.607h-0.637z"></path>
</symbol>
<symbol id="icon-food" viewBox="0 0 32 32">
<path fill="#000" style="fill: var(--color1, #000)" d="M31.234 15.921c0 8.594-6.965 15.56-15.56 15.56-8.593-0-15.557-6.965-15.557-15.56s6.964-15.561 15.557-15.561c8.594 0 15.56 6.966 15.56 15.561zM30.477 9.207l0.062-0.018c0.026 0.106 0.095 0.156 0.203 0.156 0.003 0 0.005 0 0.008 0 0.037 0 0.072-0.015 0.097-0.038l-0 0c0.024-0.026 0.039-0.062 0.039-0.101 0-0.001-0-0.003-0-0.004v0c0-0.054-0.035-0.094-0.101-0.124-0.062-0.026-0.124-0.049-0.187-0.075-0.066-0.037-0.098-0.086-0.098-0.153 0-0.058 0.015-0.102 0.051-0.135 0.038-0.033 0.087-0.053 0.141-0.053 0.003 0 0.007 0 0.010 0l-0-0c0.057 0 0.105 0.016 0.146 0.047 0.041 0.030 0.072 0.074 0.084 0.125l0 0.002-0.057 0.018c-0.028-0.091-0.086-0.137-0.173-0.137-0.002-0-0.003-0-0.005-0-0.037 0-0.070 0.013-0.096 0.034l0-0c-0.028 0.025-0.037 0.057-0.037 0.1 0 0.026 0.006 0.050 0.024 0.066 0.018 0.020 0.057 0.042 0.12 0.065 0.098 0.038 0.163 0.070 0.196 0.103 0.028 0.030 0.046 0.070 0.046 0.115 0 0.004-0 0.007-0 0.011l0-0.001c0 0.002 0 0.004 0 0.006 0 0.055-0.025 0.103-0.063 0.136l-0 0c-0.041 0.030-0.091 0.048-0.147 0.048-0.002 0-0.005-0-0.007-0h0c-0.070 0-0.125-0.015-0.166-0.048-0.039-0.029-0.069-0.080-0.090-0.145zM31.16 9.389h-0.066v-0.715h0.114l0.198 0.606h0.003l0.197-0.606h0.116v0.715h-0.066v-0.662l-0.217 0.662h-0.063l-0.217-0.662v0.662z"></path>
<path fill="#fff" style="fill: var(--color3, #fff)" d="M5.496 20.606c0.268-1.279 0.546-4.116 0.901-7.522l1.208-0.003 0.084-0.533-1.226 0.003c0.111-1.054 0.316-3.328 1.301-3.738 0.266 0.462 0.522 0.819 1.088 0.83 0.366 0.008 0.69-0.155 0.696-0.555 0.013-0.565-0.856-0.795-1.3-0.803-0.826-0.014-3.171 0.294-3.749 3.452l-0.15 0.813-0.952 0.004-0.086 0.537 0.96 0.003c-0.278 2.473-0.825 7.476-0.974 8.162-0.33 1.505-0.445 1.866-1.198 2.275 0.091 0.161 0.184 0.319 0.28 0.477 1.285-0.392 2.73-1.566 3.116-3.402zM12.21 15.156c0-0.632-0.044-2.13-0.969-2.13-1.367 0-1.558 2.629-1.558 3.584 0 0.616 0.045 2.114 0.969 2.114 1.366 0 1.558-2.629 1.558-3.568zM7.554 16.992c0-2.424 1.585-4.524 4.215-4.524 1.617 0 2.57 0.72 2.57 2.291 0 2.424-1.585 4.528-4.216 4.528-1.616 0-2.57-0.721-2.57-2.294zM19.554 15.156c0-0.632-0.044-2.13-0.968-2.13-1.366 0-1.559 2.629-1.559 3.584 0 0.616 0.045 2.114 0.969 2.114 1.368 0 1.558-2.629 1.558-3.568zM14.898 16.992c0-2.424 1.585-4.524 4.216-4.524 1.619 0 2.571 0.72 2.571 2.291 0 2.424-1.584 4.528-4.215 4.528-1.616 0-2.572-0.721-2.572-2.294zM26.312 16.287c0.35-0.909 0.471-1.747 0.662-3.114-0.070-0.027-0.15-0.043-0.235-0.043h-0c-1.618 0-2.382 2.349-2.382 3.658 0 0.322 0.074 1.101 0.543 1.101 0.647 0 1.219-1.101 1.412-1.602zM29.675 18.475c-0.925 0.444-2.054 0.809-2.833 0.809-0.397 0-0.382-0.63-0.382-0.896 0-0.308 0.030-0.734 0.102-1.556l-0.030-0.030c-0.528 1.059-1.557 2.483-2.88 2.483-1.055 0-1.497-1.102-1.497-2.013 0-2.306 1.822-4.702 4.364-4.702h0.528c0.208-1.6 0.22-2.276 0.22-2.76 0-0.162 0-0.308-0.176-0.308-0.134 0-0.336 0.042-0.853 0.205l-0.13-0.426c1.041-0.367 2.176-0.601 3.186-0.63 0.132 0 0.177 0 0.177 0.22 0 1.352-1.016 8.328-1.016 9.032 0 0.193 0 0.442 0.193 0.442 0.102 0 0.442-0.117 0.896-0.278l0.132 0.409zM9.757 22.902v-1.882h0.413v0.203c0.165-0.117 0.356-0.238 0.578-0.238 0.374 0 0.556 0.247 0.556 0.629v1.288h-0.449v-1.222c0-0.256-0.080-0.334-0.231-0.334-0.194 0-0.344 0.111-0.419 0.199v1.357h-0.449zM13.226 21.728c-0.007-0.26-0.146-0.41-0.363-0.41-0.215 0-0.353 0.15-0.362 0.411h0.725zM12.502 22.034c0.009 0.39 0.182 0.543 0.393 0.543 0.208 0 0.306-0.096 0.418-0.225l0.326 0.202c-0.172 0.268-0.426 0.382-0.788 0.382-0.488 0-0.794-0.378-0.794-0.974 0-0.597 0.305-0.976 0.817-0.976 0.491-0.006 0.765 0.412 0.765 0.864v0.185h-1.137zM14.513 21.020v-0.618h0.448v0.618h0.37v0.363h-0.37v1.065c0 0.099 0.053 0.129 0.163 0.129 0.068 0 0.14-0.022 0.206-0.039v0.373c-0.124 0.012-0.233 0.026-0.356 0.026-0.332 0-0.462-0.164-0.462-0.435v-1.12h-0.259v-0.362h0.259zM15.884 21.020h0.426l0.256 1.172h0.006l0.272-1.172h0.414l0.263 1.172h0.006l0.271-1.172h0.424l-0.484 1.882h-0.408l-0.276-1.174h-0.009l-0.274 1.174h-0.405l-0.484-1.882zM19.595 21.346c-0.25 0-0.367 0.196-0.367 0.614s0.117 0.617 0.367 0.617c0.25 0 0.369-0.198 0.369-0.617s-0.119-0.614-0.369-0.614zM19.595 20.985c0.512 0 0.818 0.381 0.818 0.975 0 0.599-0.307 0.975-0.818 0.975-0.51 0-0.816-0.376-0.816-0.975 0-0.594 0.306-0.975 0.816-0.975zM21.136 22.902v-1.882h0.41v0.323h0.008c0.108-0.226 0.258-0.352 0.53-0.358v0.472c-0.024-0.001-0.051-0.001-0.081-0.001-0.223 0-0.419 0.257-0.419 0.302v1.144h-0.448zM22.802 22.902v-2.611h0.448v1.455h0.014l0.555-0.727h0.513l-0.555 0.703 0.594 1.18h-0.478l-0.416-0.843-0.227 0.262v0.581h-0.448z"></path>
</symbol>
</defs>
</svg>
